<svg xmlns="http://www.w3.org/2000/svg" width="128" height="128" id="computer"><path fill="#2C3E50" d="M111 18c3.3 0 6 2.7 6 6v66c0 3.3-2.7 6-6 6H18c-3.3 0-6-2.7-6-6V24c0-3.3 2.7-6 6-6h93m0-4H18c-5.5 0-10 4.5-10 10v66c0 5.5 4.5 10 10 10h93c5.5 0 10-4.5 10-10V24c0-5.5-4.5-10-10-10z"></path><circle cx="65" cy="88" r="3" fill="#2C3E50"></circle><path fill="#2C3E50" d="M83.5 113H67v-8.5c0-1.1-.9-2-2-2s-2 .9-2 2v8.5H46.5c-1.1 0-2 .9-2 2s.9 2 2 2h37c1.1 0 2-.9 2-2s-.9-2-2-2z"></path><path fill="#3B97D3" d="M108 27v51H21V27h87m2-2H19v55h91V25z"></path></svg>